<?xml version="1.0" standalone="no"?><!DOCTYPE svg PUBLIC "-//W3C//DTD SVG 1.1//EN" "http://www.w3.org/Graphics/SVG/1.1/DTD/svg11.dtd"><svg t="1526452135710" class="icon" style="" viewBox="0 0 1024 1024" version="1.1" xmlns="http://www.w3.org/2000/svg" p-id="7215" xmlns:xlink="http://www.w3.org/1999/xlink" width="200" height="200"><defs><style type="text/css"></style></defs><path d="M354 212L0 512l354 300h670V212z" fill="#333333" p-id="7216"></path><path d="M838.7 675.6l-313-313c-3.9-3.9-3.9-10.3 0-14.2 3.9-3.9 10.3-3.9 14.2 0l313 313c3.9 3.9 3.9 10.3 0 14.2-3.9 3.9-10.3 3.9-14.2 0z" fill="#FFFFFF" p-id="7217"></path><path d="M525.8 661.2l312.8-312.8c3.9-3.9 10.3-3.9 14.2 0 3.9 3.9 3.9 10.3 0 14.2L540 675.4c-3.9 3.9-10.3 3.9-14.2 0-3.9-3.9-3.9-10.3 0-14.2z" fill="#FFFFFF" p-id="7218"></path></svg>